<?xml version="1.0" encoding="UTF-8" standalone="no"?>
<!-- Created with Inkscape (http://www.inkscape.org/) -->

<svg
   xmlns:dc="http://purl.org/dc/elements/1.1/"
   xmlns:cc="http://creativecommons.org/ns#"
   xmlns:rdf="http://www.w3.org/1999/02/22-rdf-syntax-ns#"
   xmlns:svg="http://www.w3.org/2000/svg"
   xmlns="http://www.w3.org/2000/svg"
   xmlns:sodipodi="http://sodipodi.sourceforge.net/DTD/sodipodi-0.dtd"
   xmlns:inkscape="http://www.inkscape.org/namespaces/inkscape"
   width="400"
   height="300"
   id="svg2"
   version="1.1"
   inkscape:version="0.48.2 r9819"
   sodipodi:docname="hourglass.svg">
  <defs
     id="defs4" />
  <sodipodi:namedview
     id="base"
     pagecolor="#ffffff"
     bordercolor="#666666"
     borderopacity="1.0"
     inkscape:pageopacity="0.0"
     inkscape:pageshadow="2"
     inkscape:zoom="1.6701291"
     inkscape:cx="200.70351"
     inkscape:cy="167.23073"
     inkscape:document-units="px"
     inkscape:current-layer="layer2"
     showgrid="false"
     inkscape:window-width="1408"
     inkscape:window-height="835"
     inkscape:window-x="20"
     inkscape:window-y="20"
     inkscape:window-maximized="0" />
  <metadata
     id="metadata7">
    <rdf:RDF>
      <cc:Work
         rdf:about="">
        <dc:format>image/svg+xml</dc:format>
        <dc:type
           rdf:resource="http://purl.org/dc/dcmitype/StillImage" />
        <dc:title></dc:title>
      </cc:Work>
    </rdf:RDF>
  </metadata>
  <g
     inkscape:label="Bottom"
     inkscape:groupmode="layer"
     id="layer1"
     transform="translate(0,-752.36218)" />
  <g
     inkscape:groupmode="layer"
     id="layer2"
     inkscape:label="Body">
    <g
       id="g5303"
       transform="matrix(1.6677187,0,0,1.5743585,-268.39564,-70.769977)">
      <path
         sodipodi:type="arc"
         style="fill:#fff8f6;fill-opacity:1;fill-rule:evenodd;stroke:#000000;stroke-width:0.40748328px;stroke-linecap:butt;stroke-linejoin:miter;stroke-opacity:1"
         id="path3050"
         sodipodi:cx="114.8609"
         sodipodi:cy="100.71291"
         sodipodi:rx="36.108967"
         sodipodi:ry="13.583849"
         d="m 150.96987,100.71291 c 0,7.50216 -16.16654,13.58385 -36.10897,13.58385 -19.942431,0 -36.108966,-6.08169 -36.108966,-13.58385 0,-7.502149 16.166535,-13.583845 36.108966,-13.583845 19.94243,0 36.10897,6.081696 36.10897,13.583845 z"
         transform="matrix(1.7095238,0,0,1.3417721,87.527814,80.95587)" />
      <g
         transform="matrix(-1,0,0,1,568.12162,-752.36218)"
         id="g3030">
        <path
           sodipodi:nodetypes="cc"
           transform="translate(0,752.36218)"
           inkscape:connector-curvature="0"
           id="path3032"
           d="m 345.86568,68.350429 c 2.21749,61.777201 -58.44862,44.864231 -57.91239,74.535391"
           style="fill:none;stroke:#000000;stroke-width:0.61714441px;stroke-linecap:butt;stroke-linejoin:miter;stroke-opacity:1" />
        <path
           style="fill:none;stroke:#000000;stroke-width:0.61714441px;stroke-linecap:butt;stroke-linejoin:miter;stroke-opacity:1"
           d="m 345.79644,969.24717 c 2.21749,-61.7772 -58.44862,-44.86423 -57.91239,-74.53539"
           id="path3034"
           inkscape:connector-curvature="0"
           sodipodi:nodetypes="cc" />
      </g>
      <g
         id="g3026"
         transform="translate(0,-752.36218)">
        <path
           style="fill:none;stroke:#000000;stroke-width:0.61714441px;stroke-linecap:butt;stroke-linejoin:miter;stroke-opacity:1"
           d="m 345.86568,68.350429 c 2.21749,61.777201 -58.44862,44.864231 -57.91239,74.535391"
           id="path3020"
           inkscape:connector-curvature="0"
           transform="translate(0,752.36218)"
           sodipodi:nodetypes="cc" />
        <path
           sodipodi:nodetypes="cc"
           inkscape:connector-curvature="0"
           id="path3022"
           d="m 345.79644,969.24717 c 2.21749,-61.7772 -58.44862,-44.86423 -57.91239,-74.53539"
           style="fill:none;stroke:#000000;stroke-width:0.61714441px;stroke-linecap:butt;stroke-linejoin:miter;stroke-opacity:1" />
      </g>
      <path
         transform="matrix(1.7095238,0,0,1.3417721,87.527814,-67.26283)"
         d="m 150.96987,100.71291 c 0,7.50216 -16.16654,13.58385 -36.10897,13.58385 -19.942431,0 -36.108966,-6.08169 -36.108966,-13.58385 0,-7.502149 16.166535,-13.583845 36.108966,-13.583845 19.94243,0 36.10897,6.081696 36.10897,13.583845 z"
         sodipodi:ry="13.583849"
         sodipodi:rx="36.108967"
         sodipodi:cy="100.71291"
         sodipodi:cx="114.8609"
         id="path3046"
         style="fill:none;stroke:#000000;stroke-width:0.40748328px;stroke-linecap:butt;stroke-linejoin:miter;stroke-opacity:1"
         sodipodi:type="arc" />
      <path
         sodipodi:nodetypes="ccccc"
         inkscape:connector-curvature="0"
         id="path5272"
         d="m 284.74499,172.07109 c -13.85636,-2.14003 -49.87329,20.67537 -57.77435,41.26739 13.13896,15.68538 37.59918,15.79882 57.43045,15.81916 29.9386,0.36364 51.35497,-2.29263 56.39876,-13.75579 -10.77537,-23.04096 -38.54676,-44.18621 -56.05486,-43.33076 z"
         style="fill:#fffbd2;fill-opacity:1;stroke:#000000;stroke-width:0.61714441px;stroke-linecap:butt;stroke-linejoin:miter;stroke-opacity:1" />
    </g>
  </g>
</svg>
